/* XPM */
static char *_4e83234a8424e52fd03e534977747ffOLKQaBj4pFkv1szy[] = {
/* columns rows colors chars-per-pixel */
"64 64 29 1 ",
"  c black",
". c white",
"X c gray90",
"o c #A9A9A9",
"O c #747474",
"+ c gray9",
"@ c gray27",
"# c #868686",
"$ c #222222",
"% c gray32",
"& c #090909",
"* c gray17",
"= c #5F5F5F",
"- c gray6",
"; c #343434",
": c #020202",
"> c #6C6C6C",
", c gray61",
"< c #686868",
"1 c gray55",
"2 c #353535",
"3 c #181818",
"4 c #101010",
"5 c #505050",
"6 c gray13",
"7 c #848484",
"8 c #434343",
"9 c #727272",
"0 c gray5",
/* pixels */
"                                                                ",
"                                                                ",
"                                                                ",
"                                                                ",
"                                                                ",
"                                                                ",
"                                                                ",
"       ..................................................       ",
"       ..................................................       ",
"       ..................................................       ",
"       ..................................................       ",
"       ..................................................       ",
"       ..................................................       ",
"       ..................................................       ",
"       .......XooooooooooX...........XooooooooooX........       ",
"       .......o          OX..........o          o........       ",
"       .......o           o..........o          o........       ",
"       .......o           +X.........o          o........       ",
"       .......o            @X........o          o........       ",
"       .......o             #X.......o          o........       ",
"       .......o              o.......o          o........       ",
"       .......o              $X......o          o........       ",
"       .......o               %X.....o          o........       ",
"       .......o                o.....o          o........       ",
"       .......o                &X....o          o........       ",
"       .......o                 *X...o          o........       ",
"       .......o                  =X..o          o........       ",
"       .......o                   o..o          o........       ",
"       .......o                   -X.o          o........       ",
"       .......o                    ;Xo          o........       ",
"       .......o         :           >,          o........       ",
"       .......o          <           1          o........       ",
"       .......o          ,2          3          o........       ",
"       .......o          oX4                    o........       ",
"       .......o          o.o                    o........       ",
"       .......o          o.X=                   o........       ",
"       .......o          o..X*                  o........       ",
"       .......o          o...X&                 o........       ",
"       .......o          o....o                 o........       ",
"       .......o          o....X5                o........       ",
"       .......o          o.....X6               o........       ",
"       .......o          o......o               o........       ",
"       .......o          o......X7              o........       ",
"       .......o          o.......X8             o........       ",
"       .......o          o........X+            o........       ",
"       .......o          o.........o            o........       ",
"       .......o          o.........X9           o........       ",
"       .......o          o..........X2          o........       ",
"       .......o          o...........X0         o........       ",
"       .......XooooooooooX............XoooooooooX........       ",
"       ..................................................       ",
"       ..................................................       ",
"       ..................................................       ",
"       ..................................................       ",
"       ..................................................       ",
"       ..................................................       ",
"       ..................................................       ",
"                                                                ",
"                                                                ",
"                                                                ",
"                                                                ",
"                                                                ",
"                                                                ",
"                                                                "
};
